<mxfile host="app.diagrams.net" agent="Mozilla/5.0 (Macintosh; Intel Mac OS X 10.15; rv:139.0) Gecko/20100101 Firefox/139.0" version="27.1.6">
  <diagram name="Page-1" id="IXO4GrHjwEJ1mxh2J0J6">
    <mxGraphModel dx="1921" dy="917" grid="1" gridSize="10" guides="1" tooltips="1" connect="1" arrows="1" fold="1" page="1" pageScale="1" pageWidth="1600" pageHeight="1200" math="0" shadow="0">
      <root>
        <mxCell id="0" />
        <mxCell id="1" parent="0" />
        <mxCell id="Y8cQL-sQh9ueQanMBTaT-46" value="" style="rounded=0;whiteSpace=wrap;html=1;" parent="1" vertex="1">
          <mxGeometry x="1000" y="379.51" width="110" height="202" as="geometry" />
        </mxCell>
        <mxCell id="Y8cQL-sQh9ueQanMBTaT-37" style="edgeStyle=orthogonalEdgeStyle;rounded=0;orthogonalLoop=1;jettySize=auto;html=1;exitX=1.037;exitY=0.654;exitDx=0;exitDy=0;entryX=0;entryY=0.5;entryDx=0;entryDy=0;exitPerimeter=0;" parent="1" source="Y8cQL-sQh9ueQanMBTaT-21" target="Y8cQL-sQh9ueQanMBTaT-29" edge="1">
          <mxGeometry relative="1" as="geometry" />
        </mxCell>
        <mxCell id="Y8cQL-sQh9ueQanMBTaT-43" style="edgeStyle=orthogonalEdgeStyle;rounded=0;orthogonalLoop=1;jettySize=auto;html=1;exitX=1;exitY=0.25;exitDx=0;exitDy=0;entryX=0;entryY=0.5;entryDx=0;entryDy=0;" parent="1" source="Y8cQL-sQh9ueQanMBTaT-21" target="Y8cQL-sQh9ueQanMBTaT-38" edge="1">
          <mxGeometry relative="1" as="geometry" />
        </mxCell>
        <mxCell id="Y8cQL-sQh9ueQanMBTaT-57" style="edgeStyle=orthogonalEdgeStyle;rounded=0;orthogonalLoop=1;jettySize=auto;html=1;exitX=0.5;exitY=1;exitDx=0;exitDy=0;entryX=0.5;entryY=1;entryDx=0;entryDy=0;entryPerimeter=0;" parent="1" source="Y8cQL-sQh9ueQanMBTaT-38" target="Y8cQL-sQh9ueQanMBTaT-55" edge="1">
          <mxGeometry relative="1" as="geometry">
            <Array as="points">
              <mxPoint x="875" y="579" />
              <mxPoint x="880" y="579" />
              <mxPoint x="880" y="610" />
              <mxPoint x="1165" y="610" />
            </Array>
          </mxGeometry>
        </mxCell>
        <mxCell id="Y8cQL-sQh9ueQanMBTaT-21" value="" style="rounded=0;whiteSpace=wrap;html=1;" parent="1" vertex="1">
          <mxGeometry x="600" y="478" width="110" height="202" as="geometry" />
        </mxCell>
        <mxCell id="Y8cQL-sQh9ueQanMBTaT-3" value="" style="shape=actor;whiteSpace=wrap;html=1;" parent="1" vertex="1">
          <mxGeometry x="170" y="550" width="40" height="60" as="geometry" />
        </mxCell>
        <mxCell id="Y8cQL-sQh9ueQanMBTaT-15" style="edgeStyle=orthogonalEdgeStyle;rounded=0;orthogonalLoop=1;jettySize=auto;html=1;" parent="1" source="Y8cQL-sQh9ueQanMBTaT-8" target="Y8cQL-sQh9ueQanMBTaT-14" edge="1">
          <mxGeometry relative="1" as="geometry" />
        </mxCell>
        <mxCell id="Y8cQL-sQh9ueQanMBTaT-8" value="" style="html=1;verticalLabelPosition=bottom;align=center;labelBackgroundColor=#ffffff;verticalAlign=top;strokeWidth=2;strokeColor=#0080F0;shadow=0;dashed=0;shape=mxgraph.ios7.icons.cloud;" parent="1" vertex="1">
          <mxGeometry x="260" y="559" width="45" height="30" as="geometry" />
        </mxCell>
        <mxCell id="Y8cQL-sQh9ueQanMBTaT-9" style="edgeStyle=orthogonalEdgeStyle;rounded=0;orthogonalLoop=1;jettySize=auto;html=1;exitX=0.9;exitY=0.5;exitDx=0;exitDy=0;exitPerimeter=0;entryX=0.022;entryY=0.7;entryDx=0;entryDy=0;entryPerimeter=0;" parent="1" source="Y8cQL-sQh9ueQanMBTaT-3" target="Y8cQL-sQh9ueQanMBTaT-8" edge="1">
          <mxGeometry relative="1" as="geometry" />
        </mxCell>
        <mxCell id="Y8cQL-sQh9ueQanMBTaT-11" value="" style="image;aspect=fixed;html=1;points=[];align=center;fontSize=12;image=img/lib/azure2/general/Browser.svg;" parent="1" vertex="1">
          <mxGeometry x="190" y="600" width="50" height="40" as="geometry" />
        </mxCell>
        <mxCell id="Y8cQL-sQh9ueQanMBTaT-12" value="Internet banking" style="text;html=1;align=center;verticalAlign=middle;whiteSpace=wrap;rounded=0;" parent="1" vertex="1">
          <mxGeometry x="150" y="510" width="60" height="30" as="geometry" />
        </mxCell>
        <mxCell id="Y8cQL-sQh9ueQanMBTaT-16" value="" style="endArrow=none;dashed=1;html=1;dashPattern=1 3;strokeWidth=2;rounded=0;" parent="1" edge="1">
          <mxGeometry width="50" height="50" relative="1" as="geometry">
            <mxPoint x="420" y="800" as="sourcePoint" />
            <mxPoint x="420" y="320" as="targetPoint" />
          </mxGeometry>
        </mxCell>
        <mxCell id="Y8cQL-sQh9ueQanMBTaT-14" value="" style="image;html=1;image=img/lib/clip_art/networking/Firewall_02_128x128.png" parent="1" vertex="1">
          <mxGeometry x="380" y="534" width="80" height="80" as="geometry" />
        </mxCell>
        <mxCell id="Y8cQL-sQh9ueQanMBTaT-24" style="edgeStyle=orthogonalEdgeStyle;rounded=0;orthogonalLoop=1;jettySize=auto;html=1;entryX=0;entryY=0.5;entryDx=0;entryDy=0;" parent="1" source="Y8cQL-sQh9ueQanMBTaT-17" target="Y8cQL-sQh9ueQanMBTaT-21" edge="1">
          <mxGeometry relative="1" as="geometry" />
        </mxCell>
        <mxCell id="Y8cQL-sQh9ueQanMBTaT-17" value="" style="shape=mxgraph.networks2.icon;aspect=fixed;fillColor=#EDEDED;strokeColor=#000000;gradientColor=#5B6163;network2IconShadow=1;network2bgFillColor=none;network2Icon=mxgraph.networks2.lan;network2IconYOffset=0.0558;network2IconW=1.0834;network2IconH=0.7564;" parent="1" vertex="1">
          <mxGeometry x="500.83" y="554.09" width="54.169999999999995" height="37.82" as="geometry" />
        </mxCell>
        <mxCell id="Y8cQL-sQh9ueQanMBTaT-18" value="Load balancer" style="text;html=1;align=center;verticalAlign=middle;whiteSpace=wrap;rounded=0;" parent="1" vertex="1">
          <mxGeometry x="495" y="504" width="60" height="30" as="geometry" />
        </mxCell>
        <mxCell id="Y8cQL-sQh9ueQanMBTaT-19" style="edgeStyle=orthogonalEdgeStyle;rounded=0;orthogonalLoop=1;jettySize=auto;html=1;entryX=-0.018;entryY=0.526;entryDx=0;entryDy=0;entryPerimeter=0;" parent="1" source="Y8cQL-sQh9ueQanMBTaT-14" target="Y8cQL-sQh9ueQanMBTaT-17" edge="1">
          <mxGeometry relative="1" as="geometry" />
        </mxCell>
        <mxCell id="Y8cQL-sQh9ueQanMBTaT-20" value="" style="shape=mxgraph.networks2.icon;aspect=fixed;fillColor=#EDEDED;strokeColor=#000000;gradientColor=#5B6163;network2IconShadow=1;network2bgFillColor=none;network2Icon=mxgraph.networks2.desktop_pc;network2IconXOffset=-0.0034;network2IconYOffset=0.00035;network2IconW=0.453;network2IconH=0.9995;" parent="1" vertex="1">
          <mxGeometry x="643.67" y="496.51" width="22.650000000000002" height="49.975" as="geometry" />
        </mxCell>
        <mxCell id="Y8cQL-sQh9ueQanMBTaT-22" value="" style="shape=mxgraph.networks2.icon;aspect=fixed;fillColor=#EDEDED;strokeColor=#000000;gradientColor=#5B6163;network2IconShadow=1;network2bgFillColor=none;network2Icon=mxgraph.networks2.desktop_pc;network2IconXOffset=-0.0034;network2IconYOffset=0.00035;network2IconW=0.453;network2IconH=0.9995;" parent="1" vertex="1">
          <mxGeometry x="643.67" y="581.51" width="22.650000000000002" height="49.975" as="geometry" />
        </mxCell>
        <mxCell id="Y8cQL-sQh9ueQanMBTaT-25" value="&lt;div&gt;Front end&lt;/div&gt;&lt;div&gt;NodeJS&lt;/div&gt;" style="text;html=1;align=center;verticalAlign=middle;whiteSpace=wrap;rounded=0;" parent="1" vertex="1">
          <mxGeometry x="621.33" y="430" width="60" height="30" as="geometry" />
        </mxCell>
        <mxCell id="Y8cQL-sQh9ueQanMBTaT-26" value="SERVER 1" style="text;html=1;align=center;verticalAlign=middle;whiteSpace=wrap;rounded=0;" parent="1" vertex="1">
          <mxGeometry x="617.5" y="546.49" width="75" height="30" as="geometry" />
        </mxCell>
        <mxCell id="Y8cQL-sQh9ueQanMBTaT-27" value="SERVER 2" style="text;html=1;align=center;verticalAlign=middle;whiteSpace=wrap;rounded=0;" parent="1" vertex="1">
          <mxGeometry x="617.5" y="631.49" width="75" height="30" as="geometry" />
        </mxCell>
        <mxCell id="Y8cQL-sQh9ueQanMBTaT-29" value="" style="rounded=0;whiteSpace=wrap;html=1;" parent="1" vertex="1">
          <mxGeometry x="820" y="640" width="330" height="176" as="geometry" />
        </mxCell>
        <mxCell id="Y8cQL-sQh9ueQanMBTaT-28" value="" style="points=[];aspect=fixed;html=1;align=center;shadow=0;dashed=0;fillColor=light-dark(#FF6A00,#FFFFFF);strokeColor=none;shape=mxgraph.alibaba_cloud.ask_ack_container_service_for_kubernetes;" parent="1" vertex="1">
          <mxGeometry x="800" y="790" width="44.7" height="51.3" as="geometry" />
        </mxCell>
        <mxCell id="Y8cQL-sQh9ueQanMBTaT-30" value="K8s cluster nuevos serivicios digitales" style="text;html=1;align=center;verticalAlign=middle;whiteSpace=wrap;rounded=0;" parent="1" vertex="1">
          <mxGeometry x="890" y="830" width="170" height="30" as="geometry" />
        </mxCell>
        <mxCell id="Y8cQL-sQh9ueQanMBTaT-31" value="Microservice" style="shape=ellipse;fillColor=#A56EFF;aspect=fixed;resizable=0;labelPosition=center;verticalLabelPosition=bottom;align=center;verticalAlign=top;strokeColor=none;fontSize=14;" parent="1" vertex="1">
          <mxGeometry x="860" y="680" width="48" height="48" as="geometry" />
        </mxCell>
        <mxCell id="Y8cQL-sQh9ueQanMBTaT-32" value="" style="fillColor=#ffffff;strokeColor=none;dashed=0;outlineConnect=0;html=1;labelPosition=center;verticalLabelPosition=bottom;verticalAlign=top;part=1;movable=0;resizable=0;rotatable=0;shape=mxgraph.ibm_cloud.microservices--1" parent="Y8cQL-sQh9ueQanMBTaT-31" vertex="1">
          <mxGeometry width="24" height="24" relative="1" as="geometry">
            <mxPoint x="12" y="12" as="offset" />
          </mxGeometry>
        </mxCell>
        <mxCell id="Y8cQL-sQh9ueQanMBTaT-33" value="Microservice" style="shape=ellipse;fillColor=light-dark(#A56EFF,#00CC66);aspect=fixed;resizable=0;labelPosition=center;verticalLabelPosition=bottom;align=center;verticalAlign=top;strokeColor=none;fontSize=14;" parent="1" vertex="1">
          <mxGeometry x="970" y="680" width="48" height="48" as="geometry" />
        </mxCell>
        <mxCell id="Y8cQL-sQh9ueQanMBTaT-34" value="" style="fillColor=#ffffff;strokeColor=none;dashed=0;outlineConnect=0;html=1;labelPosition=center;verticalLabelPosition=bottom;verticalAlign=top;part=1;movable=0;resizable=0;rotatable=0;shape=mxgraph.ibm_cloud.microservices--1" parent="Y8cQL-sQh9ueQanMBTaT-33" vertex="1">
          <mxGeometry width="24" height="24" relative="1" as="geometry">
            <mxPoint x="12" y="12" as="offset" />
          </mxGeometry>
        </mxCell>
        <mxCell id="Y8cQL-sQh9ueQanMBTaT-35" value="Microservice" style="shape=ellipse;fillColor=light-dark(#A56EFF,#3333FF);aspect=fixed;resizable=0;labelPosition=center;verticalLabelPosition=bottom;align=center;verticalAlign=top;strokeColor=none;fontSize=14;" parent="1" vertex="1">
          <mxGeometry x="1070" y="680" width="48" height="48" as="geometry" />
        </mxCell>
        <mxCell id="Y8cQL-sQh9ueQanMBTaT-36" value="" style="fillColor=#ffffff;strokeColor=none;dashed=0;outlineConnect=0;html=1;labelPosition=center;verticalLabelPosition=bottom;verticalAlign=top;part=1;movable=0;resizable=0;rotatable=0;shape=mxgraph.ibm_cloud.microservices--1" parent="Y8cQL-sQh9ueQanMBTaT-35" vertex="1">
          <mxGeometry width="24" height="24" relative="1" as="geometry">
            <mxPoint x="12" y="12" as="offset" />
          </mxGeometry>
        </mxCell>
        <mxCell id="Y8cQL-sQh9ueQanMBTaT-51" style="edgeStyle=orthogonalEdgeStyle;rounded=0;orthogonalLoop=1;jettySize=auto;html=1;entryX=0;entryY=0.5;entryDx=0;entryDy=0;" parent="1" source="Y8cQL-sQh9ueQanMBTaT-38" target="Y8cQL-sQh9ueQanMBTaT-46" edge="1">
          <mxGeometry relative="1" as="geometry" />
        </mxCell>
        <mxCell id="Y8cQL-sQh9ueQanMBTaT-38" value="" style="rounded=0;whiteSpace=wrap;html=1;" parent="1" vertex="1">
          <mxGeometry x="820" y="379.51" width="110" height="202" as="geometry" />
        </mxCell>
        <mxCell id="Y8cQL-sQh9ueQanMBTaT-39" value="" style="shape=mxgraph.networks2.icon;aspect=fixed;fillColor=#EDEDED;strokeColor=#000000;gradientColor=#5B6163;network2IconShadow=1;network2bgFillColor=none;network2Icon=mxgraph.networks2.desktop_pc;network2IconXOffset=-0.0034;network2IconYOffset=0.00035;network2IconW=0.453;network2IconH=0.9995;" parent="1" vertex="1">
          <mxGeometry x="863.67" y="398.02" width="22.650000000000002" height="49.975" as="geometry" />
        </mxCell>
        <mxCell id="Y8cQL-sQh9ueQanMBTaT-40" value="" style="shape=mxgraph.networks2.icon;aspect=fixed;fillColor=#EDEDED;strokeColor=#000000;gradientColor=#5B6163;network2IconShadow=1;network2bgFillColor=none;network2Icon=mxgraph.networks2.desktop_pc;network2IconXOffset=-0.0034;network2IconYOffset=0.00035;network2IconW=0.453;network2IconH=0.9995;" parent="1" vertex="1">
          <mxGeometry x="863.67" y="483.02" width="22.650000000000002" height="49.975" as="geometry" />
        </mxCell>
        <mxCell id="Y8cQL-sQh9ueQanMBTaT-41" value="SERVER 3" style="text;html=1;align=center;verticalAlign=middle;whiteSpace=wrap;rounded=0;" parent="1" vertex="1">
          <mxGeometry x="837.5" y="448" width="75" height="30" as="geometry" />
        </mxCell>
        <mxCell id="Y8cQL-sQh9ueQanMBTaT-42" value="SERVER 4" style="text;html=1;align=center;verticalAlign=middle;whiteSpace=wrap;rounded=0;" parent="1" vertex="1">
          <mxGeometry x="837.5" y="533" width="75" height="30" as="geometry" />
        </mxCell>
        <mxCell id="Y8cQL-sQh9ueQanMBTaT-44" value="&lt;div&gt;Service A&lt;/div&gt;&lt;div&gt;Java&lt;/div&gt;" style="text;html=1;align=center;verticalAlign=middle;whiteSpace=wrap;rounded=0;" parent="1" vertex="1">
          <mxGeometry x="844.7" y="330" width="60" height="30" as="geometry" />
        </mxCell>
        <mxCell id="Y8cQL-sQh9ueQanMBTaT-45" value="" style="image;aspect=fixed;perimeter=ellipsePerimeter;html=1;align=center;shadow=0;dashed=0;spacingTop=3;image=img/lib/active_directory/database_server.svg;" parent="1" vertex="1">
          <mxGeometry x="1040" y="398.02" width="41" height="50" as="geometry" />
        </mxCell>
        <mxCell id="Y8cQL-sQh9ueQanMBTaT-47" value="" style="image;aspect=fixed;perimeter=ellipsePerimeter;html=1;align=center;shadow=0;dashed=0;spacingTop=3;image=img/lib/active_directory/database_server.svg;" parent="1" vertex="1">
          <mxGeometry x="1040" y="494" width="41" height="50" as="geometry" />
        </mxCell>
        <mxCell id="Y8cQL-sQh9ueQanMBTaT-48" value="&lt;div&gt;SQL&lt;/div&gt;&lt;div&gt;Oracle&lt;/div&gt;" style="text;html=1;align=center;verticalAlign=middle;whiteSpace=wrap;rounded=0;" parent="1" vertex="1">
          <mxGeometry x="1025" y="330" width="60" height="30" as="geometry" />
        </mxCell>
        <mxCell id="Y8cQL-sQh9ueQanMBTaT-49" value="SERVER 5" style="text;html=1;align=center;verticalAlign=middle;whiteSpace=wrap;rounded=0;" parent="1" vertex="1">
          <mxGeometry x="1017.5" y="453.02" width="75" height="30" as="geometry" />
        </mxCell>
        <mxCell id="Y8cQL-sQh9ueQanMBTaT-50" value="SERVER 6" style="text;html=1;align=center;verticalAlign=middle;whiteSpace=wrap;rounded=0;" parent="1" vertex="1">
          <mxGeometry x="1017.5" y="551.51" width="75" height="30" as="geometry" />
        </mxCell>
        <mxCell id="Y8cQL-sQh9ueQanMBTaT-52" value="" style="endArrow=none;dashed=1;html=1;dashPattern=1 3;strokeWidth=2;rounded=0;" parent="1" edge="1">
          <mxGeometry width="50" height="50" relative="1" as="geometry">
            <mxPoint x="1290" y="801.49" as="sourcePoint" />
            <mxPoint x="1290" y="321.49" as="targetPoint" />
          </mxGeometry>
        </mxCell>
        <mxCell id="Y8cQL-sQh9ueQanMBTaT-64" style="edgeStyle=orthogonalEdgeStyle;rounded=0;orthogonalLoop=1;jettySize=auto;html=1;exitX=1;exitY=0.5;exitDx=0;exitDy=0;entryX=0;entryY=0.5;entryDx=0;entryDy=0;" parent="1" source="Y8cQL-sQh9ueQanMBTaT-53" target="Y8cQL-sQh9ueQanMBTaT-61" edge="1">
          <mxGeometry relative="1" as="geometry" />
        </mxCell>
        <mxCell id="Y8cQL-sQh9ueQanMBTaT-53" value="" style="image;html=1;image=img/lib/clip_art/networking/Firewall_02_128x128.png" parent="1" vertex="1">
          <mxGeometry x="1250" y="535.49" width="80" height="80" as="geometry" />
        </mxCell>
        <mxCell id="Y8cQL-sQh9ueQanMBTaT-60" style="edgeStyle=orthogonalEdgeStyle;rounded=0;orthogonalLoop=1;jettySize=auto;html=1;exitX=1;exitY=0.5;exitDx=0;exitDy=0;exitPerimeter=0;" parent="1" source="Y8cQL-sQh9ueQanMBTaT-55" target="Y8cQL-sQh9ueQanMBTaT-53" edge="1">
          <mxGeometry relative="1" as="geometry" />
        </mxCell>
        <mxCell id="Y8cQL-sQh9ueQanMBTaT-55" value="" style="outlineConnect=0;dashed=0;verticalLabelPosition=bottom;verticalAlign=top;align=center;html=1;shape=mxgraph.aws3.vpn_gateway;fillColor=light-dark(#F58534,#00FFFF);gradientColor=none;" parent="1" vertex="1">
          <mxGeometry x="1140" y="504" width="50" height="46" as="geometry" />
        </mxCell>
        <mxCell id="Y8cQL-sQh9ueQanMBTaT-58" value="API Gateway" style="text;html=1;align=center;verticalAlign=middle;whiteSpace=wrap;rounded=0;" parent="1" vertex="1">
          <mxGeometry x="1135" y="465.51" width="60" height="30" as="geometry" />
        </mxCell>
        <mxCell id="Y8cQL-sQh9ueQanMBTaT-61" value="" style="editableCssRules=.*;html=1;shape=image;verticalLabelPosition=bottom;labelBackgroundColor=#ffffff;verticalAlign=top;aspect=fixed;imageAspect=0;image=data:image/svg+xml,PHN2ZyB4bWxucz0iaHR0cDovL3d3dy53My5vcmcvMjAwMC9zdmciIHhtbG5zOnY9Imh0dHBzOi8vdmVjdGEuaW8vbmFubyIgd2lkdGg9IjE5Ljk5OTk5ODA5MjY1MTM2NyIgaGVpZ2h0PSIyMCIgdmlld0JveD0iMCAtMi44NDIxNzA1NjE4NzU1NzQ1ZS0xNSAxOS45OTk5OTgwOTI2NTEzNjcgMjAiPiYjeGE7CTxzdHlsZSB0eXBlPSJ0ZXh0L2NzcyI+JiN4YTsJLnN0MHtmaWxsOiM0Mjg1ZjQ7fSYjeGE7CS5zdDF7ZmlsbDojNjY5ZGY2O30mI3hhOwk8L3N0eWxlPiYjeGE7CTxwYXRoIGNsYXNzPSJzdDEiIGQ9Ik0xNS40OSAxMC40djYuN2EuNC40IDAgMCAxLS40LjRIMi45YS40LjQgMCAwIDEtLjQtLjRWNC45YS40LjQgMCAwIDEgLjQtLjRoNi43YS40LjQgMCAwIDAgLjQtLjRWMi40YS40LjQgMCAwIDAtLjQtLjRILjRhLjQuNCAwIDAgMC0uNC40djE3LjJhLjQuNCAwIDAgMCAuNC40aDE3LjJhLjQuNCAwIDAgMCAuNC0uNHYtOS4yYS40LjQgMCAwIDAtLjQtLjRoLTEuNzFhLjQuNCAwIDAgMC0uNC40eiIvPiYjeGE7CTxwYXRoIGNsYXNzPSJzdDAiIGQ9Ik0xMiAuNHY3LjJhLjQuNCAwIDAgMCAuNC40aDcuMmEuNC40IDAgMCAwIC40LS40Vi40YS40LjQgMCAwIDAtLjQtLjRoLTcuMmEuNC40IDAgMCAwLS40LjR6bTUuNiA0LjFoLTEuNzFhLjQuNCAwIDAgMS0uNC0uNFYyLjRhLjQuNCAwIDAgMSAuNC0uNGgxLjcxYS40LjQgMCAwIDEgLjQuNHYxLjdhLjQuNCAwIDAgMS0uNC40eiIvPiYjeGE7PC9zdmc+;" parent="1" vertex="1">
          <mxGeometry x="1460" y="504" width="40" height="40" as="geometry" />
        </mxCell>
        <mxCell id="Y8cQL-sQh9ueQanMBTaT-62" value="&lt;div&gt;External SaaS service&lt;/div&gt;&lt;div&gt;&lt;br&gt;&lt;/div&gt;" style="text;html=1;align=center;verticalAlign=middle;whiteSpace=wrap;rounded=0;" parent="1" vertex="1">
          <mxGeometry x="1450" y="570" width="60" height="30" as="geometry" />
        </mxCell>
        <mxCell id="Y8cQL-sQh9ueQanMBTaT-63" style="edgeStyle=orthogonalEdgeStyle;rounded=0;orthogonalLoop=1;jettySize=auto;html=1;exitX=0.5;exitY=1;exitDx=0;exitDy=0;" parent="1" source="Y8cQL-sQh9ueQanMBTaT-62" target="Y8cQL-sQh9ueQanMBTaT-62" edge="1">
          <mxGeometry relative="1" as="geometry" />
        </mxCell>
        <mxCell id="A1X7Kd32pb8hrwu_0ENj-1" value="Bancaribe: Applicación XXX" style="text;strokeColor=none;fillColor=none;html=1;fontSize=24;fontStyle=1;verticalAlign=middle;align=center;" vertex="1" parent="1">
          <mxGeometry x="300" y="310" width="100" height="40" as="geometry" />
        </mxCell>
      </root>
    </mxGraphModel>
  </diagram>
</mxfile>
